<?xml version="1.0" encoding="UTF-8" standalone="no"?>
<svg width="256px" height="256px" viewBox="0 0 256 256" version="1.1" xmlns="http://www.w3.org/2000/svg" xmlns:xlink="http://www.w3.org/1999/xlink" xmlns:sketch="http://www.bohemiancoding.com/sketch/ns">
    <!-- Generator: Sketch 3.1.1 (8761) - http://www.bohemiancoding.com/sketch -->
    <title>tap</title>
    <desc>Created with Sketch.</desc>
    <defs></defs>
    <g id="Page-1" stroke="none" stroke-width="1" fill="none" fill-rule="evenodd" sketch:type="MSPage">
        <g id="tap" sketch:type="MSArtboardGroup">
            <circle id="Oval-2" fill="#EB974E" sketch:type="MSShapeGroup" cx="128" cy="128" r="128"></circle>
            <g id="beer3" sketch:type="MSLayerGroup" transform="translate(45.000000, -2.000000)" fill="#FFFFFF">
                <g id="Icons_3_" sketch:type="MSShapeGroup">
                    <g id="Group">
                        <path d="M117.24,140.9325 L70.425,140.9325 L70.425,116.0475 L72.825,114.9975 C74.685,114.1875 75.5925,112.065 74.8875,110.16 L38.8725,12.165 C37.11,7.365 33.4425,3.5025 28.7325,1.4925 C24.03,-0.5175 18.7125,-0.495 14.025,1.545 C9.3375,3.585 5.7,7.4775 3.975,12.2925 C2.25,17.1075 2.5725,22.4175 4.89,26.9775 L52.1625,120.075 C52.8075,121.35 54.09,122.0925 55.44,122.13 L55.44,140.9325 L43.335,140.9325 C39.825,140.9325 36.975,143.775 36.975,147.2925 L36.975,189.72 C36.975,193.23 39.8175,196.08 43.335,196.08 L88.1325,196.08 C91.65,196.08 94.5,193.2375 94.5,189.72 L94.5,163.4325 L117.2625,163.4325 C121.9725,163.4325 125.805,167.265 125.805,171.975 L125.805,179.625 C125.805,183.135 128.6475,185.985 132.1725,185.985 L141.96,185.985 C145.4775,185.985 148.32,183.1425 148.32,179.625 L148.32,171.975 C148.2825,154.86 134.3475,140.9325 117.24,140.9325 L117.24,140.9325 Z" id="Shape"></path>
                        <path d="M138.165,192.9 C133.11,192.9 129.015,211.995 129.015,217.0575 C129.015,222.105 133.11,226.1925 138.165,226.1925 C143.2125,226.1925 147.3075,222.0975 147.3075,217.05 C147.3075,211.9875 143.2125,192.9 138.165,192.9 L138.165,192.9 Z" id="Shape"></path>
                    </g>
                </g>
            </g>
        </g>
    </g>
</svg>